<svg width="628" height="601" viewBox="0 0 628 601" fill="none" xmlns="http://www.w3.org/2000/svg">
<path d="M313.571 1.21077C261.063 1.21077 219.087 93.4989 186.311 138.13C122.786 167.632 -80.7678 173.684 34.9048 299.74C84.9958 354.328 78.7382 342.189 107.012 376.757C126.542 391.718 -39.5934 731.952 322.317 545.106C374.855 545.106 607.798 724.387 531.396 376.757C640.308 269.731 627.539 233.444 627.539 233.444C610.264 150.99 485.268 173.451 448.021 138.13C412.562 104.505 379.669 -13.162 313.571 1.21077ZM413.658 415.753C409.699 421.74 402.724 423.752 396.78 419.715C350.116 390.756 291.551 384.756 222.003 400.717C215.09 402.78 209.133 397.78 207.123 391.718C205.187 384.756 210.101 378.769 216.046 376.757C291.551 359.759 357.091 366.721 408.669 398.755C415.656 401.755 416.624 409.754 413.658 415.753ZM437.498 360.746C432.522 367.783 423.599 370.783 416.612 365.758C363.036 332.749 281.586 322.8 219.087 342.773C211.131 344.723 202.146 340.761 200.21 332.737C198.212 324.738 202.146 315.751 210.101 313.739C282.628 291.729 371.946 302.79 433.49 340.748C439.497 343.748 442.475 353.772 437.498 360.746ZM439.509 304.765C375.905 266.731 269.696 262.769 209.133 281.78C199.193 284.767 189.289 278.78 186.311 269.731C183.344 259.769 189.289 249.745 198.212 246.746C268.741 225.735 384.878 229.76 458.385 273.755C467.308 278.767 470.262 290.754 465.298 299.74C460.321 306.777 448.42 309.752 439.497 304.752L439.509 304.765Z" fill="white"/>
</svg>
